<svg width="73" height="90" xmlns="http://www.w3.org/2000/svg"><path d="M60.97 47.931c-.113-11.271 9.259-16.677 9.678-16.945-5.266-7.65-13.47-8.698-16.393-8.82-6.982-.701-13.623 4.08-17.166 4.08-3.534 0-9.001-3.976-14.791-3.871-7.61.112-14.626 4.392-18.545 11.158-7.906 13.62-2.024 33.795 5.682 44.84 3.765 5.408 8.255 11.48 14.15 11.263 5.677-.225 7.824-3.647 14.687-3.647 6.863 0 8.793 3.647 14.8 3.535 6.109-.112 9.98-5.51 13.719-10.933 4.324-6.273 6.104-12.345 6.209-12.657-.136-.061-11.912-4.54-12.03-18.003zM49.68 14.854c3.13-3.768 5.241-8.996 4.665-14.212-4.507.182-9.97 2.98-13.203 6.74-2.902 3.335-5.442 8.659-4.76 13.77 5.03.39 10.166-2.538 13.298-6.298z" fill="#FFF"/></svg>