<svg width="94" height="90" xmlns="http://www.w3.org/2000/svg"><path d="M46.602.642L93.204 34.5l-17.8 54.784H17.8L0 34.5 46.602.642zm8.478 73.58H66.3c-1.32-2.52-3.12-5.63-5.4-9.33-2.28-3.7-5.1-7.73-8.46-12.09l13.2-20.16H54.96l-7.92 12.96-8.1-12.96H27.6l13.38 20.04c-2.88 4-5.49 7.78-7.83 11.34-2.34 3.56-4.39 6.96-6.15 10.2h10.68c.36-.76.92-1.8 1.68-3.12.76-1.32 1.57-2.7 2.43-4.14.86-1.44 1.72-2.8 2.58-4.08.86-1.28 1.57-2.28 2.13-3 1.8 2.48 3.39 4.91 4.77 7.29 1.38 2.38 2.65 4.73 3.81 7.05z" fill="#FFF"/></svg>