<?xml version="1.0" encoding="UTF-8"?>
<svg width="21px" height="26px" viewBox="0 0 21 26" version="1.1" xmlns="http://www.w3.org/2000/svg" xmlns:xlink="http://www.w3.org/1999/xlink">
    <!-- Generator: sketchtool 52.2 (67145) - http://www.bohemiancoding.com/sketch -->
    <title>6B014E66-22BC-4B52-9349-953321E15C3C</title>
    <desc>Created with sketchtool.</desc>
    <g id="Page-1" stroke="none" stroke-width="1" fill="none" fill-rule="evenodd">
        <g id="LP_mob_dev" transform="translate(-411.000000, -486.000000)" fill="#FFFFFF">
            <g id="1">
                <g id="Group-15" transform="translate(411.000000, 486.000000)">
                    <g id="android">
                        <path d="M16.8589867,8.47191011 L4.42095398,8.47191011 C4.14427498,8.47191011 3.92,8.71126175 3.92,9.00654023 L3.92,20.1380066 C3.92,20.4332851 4.14427498,20.6726367 4.42095398,20.6726367 L6.63836229,20.6726367 L6.63836229,24.4239781 C6.63836229,25.2943592 7.29949572,26 8.11511123,26 C8.9306674,26 9.59186018,25.2944225 9.59186018,24.4239781 L9.59186018,20.6726367 L11.6573384,20.6726367 L11.6573384,24.4239781 C11.6573384,25.2943592 12.3184718,26 13.1340873,26 C13.9496435,26 14.6108363,25.2944225 14.6108363,24.4239781 L14.6108363,20.6726367 L16.859046,20.6726367 C17.135725,20.6726367 17.36,20.4332851 17.36,20.1380066 L17.36,9.00654023 C17.3599407,8.71126175 17.1356657,8.47191011 16.8589867,8.47191011 Z" id="Path"></path>
                        <path d="M1.54,8.47191011 C0.689512519,8.47191011 0,9.16235322 0,10.014127 L0,16.2780079 C0,17.1297196 0.689450629,17.8202247 1.54,17.8202247 C2.39048748,17.8202247 3.08,17.1297816 3.08,16.2780079 L3.08,10.014127 C3.07993811,9.1624152 2.39048748,8.47191011 1.54,8.47191011 Z" id="Path"></path>
                        <path d="M19.46,8.47191011 C18.6095125,8.47191011 17.92,9.16235322 17.92,10.014127 L17.92,16.2780079 C17.92,17.1297196 18.6094506,17.8202247 19.46,17.8202247 C20.3104875,17.8202247 21,17.1297816 21,16.2780079 L21,10.014127 C21,9.1624152 20.3105494,8.47191011 19.46,8.47191011 Z" id="Path"></path>
                        <path d="M4.43019418,7.88764045 L16.8498239,7.88764045 C17.1738216,7.88764045 17.4154613,7.57339173 17.3489229,7.2394985 C16.9380991,5.17790486 15.691499,3.44054113 13.9999605,2.43689061 L15.0616779,0.419862692 C15.1335298,0.283304682 15.0866751,0.111208531 14.9569794,0.0355548847 C14.8269818,-0.0402894848 14.6637754,0.00923504482 14.5919235,0.145793055 L13.5221756,2.17801528 C12.6460052,1.74990465 11.669544,1.51080098 10.6400091,1.51080098 C9.6104137,1.51080098 8.63395253,1.74990465 7.7577821,2.17801528 L6.68803423,0.14572948 C6.61612195,0.00910789584 6.45267399,-0.0401623358 6.32303869,0.0354913102 C6.193343,0.111144956 6.14648833,0.283241107 6.21834022,0.419799117 L7.28005759,2.43682704 C5.58851914,3.44054113 4.341919,5.17784128 3.93109524,7.2394985 C3.86449638,7.57339173 4.10613611,7.88764045 4.43019418,7.88764045 Z M14.3458761,4.88164772 C14.3458761,5.21744819 14.08733,5.48973774 13.7683438,5.48973774 C13.449418,5.48973774 13.1908116,5.21751177 13.1908116,4.88164772 C13.1908116,4.54584725 13.4493577,4.2735577 13.7683438,4.2735577 C14.08733,4.2735577 14.3458761,4.54584725 14.3458761,4.88164772 Z M7.51155352,4.2735577 C7.83047931,4.2735577 8.08908574,4.54578368 8.08908574,4.88164772 C8.08908574,5.21744819 7.83053969,5.48973774 7.51155352,5.48973774 C7.19262772,5.48973774 6.93402129,5.21751177 6.93402129,4.88164772 C6.93402129,4.54584725 7.19256734,4.2735577 7.51155352,4.2735577 Z" id="Shape" fill-rule="nonzero"></path>
                    </g>
                </g>
            </g>
        </g>
    </g>
</svg>