<?xml version="1.0" encoding="UTF-8"?>
<svg width="21px" height="26px" viewBox="0 0 21 26" version="1.1" xmlns="http://www.w3.org/2000/svg" xmlns:xlink="http://www.w3.org/1999/xlink">
    <!-- Generator: sketchtool 52.2 (67145) - http://www.bohemiancoding.com/sketch -->
    <title>02EBB9A1-548D-4066-BDD4-6DE20676C9A7</title>
    <desc>Created with sketchtool.</desc>
    <g id="Page-1" stroke="none" stroke-width="1" fill="none" fill-rule="evenodd">
        <g id="LP_mob_dev" transform="translate(-412.000000, -431.000000)" fill="#FFFFFF" fill-rule="nonzero">
            <g id="1">
                <g id="Group-14" transform="translate(412.000000, 431.000000)">
                    <g id="apple">
                        <path d="M17.5392499,13.8148226 C17.5067101,10.5221188 20.2028765,8.94297576 20.3233139,8.86451881 C18.8084015,6.62963815 16.4485129,6.32347829 15.6075665,6.28808379 C13.5992182,6.08308008 11.6887914,7.4801217 10.6695311,7.4801217 C9.65283975,7.4801217 8.08000047,6.31840017 6.41437752,6.34891967 C4.2253479,6.38172432 2.20692539,7.63210984 1.07977008,9.60856497 C-1.19458827,13.5872721 0.497328422,19.4814461 2.71406217,22.7082359 C3.79724347,24.2877344 5.0888606,26.0617249 6.78470624,25.99835 C8.41778943,25.9326391 9.03533978,24.9330111 11.0097379,24.9330111 C12.9840857,24.9330111 13.5391254,25.99835 15.2673093,25.9656469 C17.0246582,25.9327407 18.1380118,24.3559336 19.2137381,22.7716109 C20.4576034,20.939222 20.9697773,19.1651808 21,19.0741301 C20.9609624,19.0561535 17.5732,17.7477759 17.5392499,13.8148226 Z M14.2919223,4.15192178 C15.1920045,3.05103612 15.7995309,1.52368994 15.6338098,0 C14.3373067,0.0532186988 12.7657771,0.870643693 11.835573,1.96904107 C11.000923,2.94343076 10.2702894,4.49860504 10.466082,5.99182626 C11.9134468,6.10567771 13.3908831,5.25031916 14.2919223,4.15192178 Z"></path>
                    </g>
                </g>
            </g>
        </g>
    </g>
</svg>