<?xml version="1.0" encoding="UTF-8"?>
<svg width="94px" height="90px" viewBox="0 0 94 90" version="1.1" xmlns="http://www.w3.org/2000/svg" xmlns:xlink="http://www.w3.org/1999/xlink">
    <!-- Generator: sketchtool 52.2 (67145) - http://www.bohemiancoding.com/sketch -->
    <title>64E47118-5867-4C4B-B741-B7E7A15E8F78</title>
    <desc>Created with sketchtool.</desc>
    <g id="Page-1" stroke="none" stroke-width="1" fill="none" fill-rule="evenodd">
        <g id="LP_mob_dev" transform="translate(-438.000000, -2025.000000)" fill="#FFFFFF" fill-rule="nonzero">
            <g id="3" transform="translate(0.000000, 1540.000000)">
                <g id="hybrid-2" transform="translate(438.000000, 485.000000)">
                    <path d="M46.6017693,0.641832724 L93.2035386,34.5 L75.4032467,89.2836654 L17.8002919,89.2836654 L-2.84217094e-14,34.5 L46.6017693,0.641832724 Z M55.08,74.2218327 L66.3,74.2218327 C64.9799934,71.7018201 63.1800114,68.5918512 60.9,64.8918327 C58.6199886,61.1918142 55.8000168,57.1618545 52.44,52.8018327 L65.64,32.6418327 L54.96,32.6418327 L47.04,45.6018327 L38.94,32.6418327 L27.6,32.6418327 L40.98,52.6818327 C38.0999856,56.6818527 35.4900117,60.4618149 33.15,64.0218327 C30.8099883,67.5818505 28.7600088,70.9818165 27,74.2218327 L37.68,74.2218327 C38.0400018,73.4618289 38.5999962,72.4218393 39.36,71.1018327 C40.1200038,69.7818261 40.9299957,68.4018399 41.79,66.9618327 C42.6500043,65.5218255 43.5099957,64.1618391 44.37,62.8818327 C45.2300043,61.6018263 45.9399972,60.6018363 46.5,59.8818327 C48.300009,62.3618451 49.8899931,64.7918208 51.27,67.1718327 C52.6500069,69.5518446 53.9199942,71.9018211 55.08,74.2218327 Z" id="hybrid_big"></path>
                </g>
            </g>
        </g>
    </g>
</svg>