<svg width="75" height="90" xmlns="http://www.w3.org/2000/svg"><g fill="#FFF" fill-rule="evenodd"><path d="M60.21 29.642H15.79c-.989 0-1.79.82-1.79 1.83v38.104c0 1.01.801 1.83 1.79 1.83h7.918v12.841c0 2.98 2.362 5.395 5.275 5.395 2.912 0 5.274-2.415 5.274-5.395V71.406h7.376v12.841c0 2.98 2.362 5.395 5.274 5.395 2.913 0 5.275-2.415 5.275-5.395V71.406h8.029c.988 0 1.789-.82 1.789-1.83V31.472c0-1.01-.801-1.83-1.79-1.83zm-54.71 0c-3.037 0-5.5 2.363-5.5 5.279v21.442c0 2.915 2.462 5.279 5.5 5.279 3.037 0 5.5-2.364 5.5-5.28v-21.44c0-2.916-2.463-5.28-5.5-5.28zm64 0c-3.037 0-5.5 2.363-5.5 5.279v21.442c0 2.915 2.462 5.279 5.5 5.279 3.037 0 5.5-2.364 5.5-5.28v-21.44c0-2.916-2.462-5.28-5.5-5.28z"/><path d="M15.822 27.642h44.356c1.157 0 2.02-1.076 1.782-2.219A24.726 24.726 0 0050 8.983l3.792-6.904a.972.972 0 00-.374-1.315.954.954 0 00-1.304.377l-3.82 6.956A24.203 24.203 0 0038 5.813c-3.677 0-7.164.819-10.294 2.284l-3.82-6.956a.954.954 0 00-1.304-.378.972.972 0 00-.374 1.316L26 8.983a24.727 24.727 0 00-11.96 16.44c-.238 1.143.625 2.219 1.782 2.219zm35.413-10.29c0 1.15-.923 2.082-2.062 2.082a2.072 2.072 0 01-2.063-2.082c0-1.15.923-2.081 2.063-2.081 1.139 0 2.062.932 2.062 2.081zm-24.408-2.081c1.139 0 2.063.931 2.063 2.081s-.924 2.082-2.063 2.082a2.072 2.072 0 01-2.063-2.082c0-1.15.924-2.081 2.063-2.081z" fill-rule="nonzero"/></g></svg>