<svg width="21" height="26" xmlns="http://www.w3.org/2000/svg"><g fill="#FFF" fill-rule="evenodd"><path d="M16.859 8.472H4.421c-.277 0-.501.24-.501.535v11.131c0 .295.224.535.501.535h2.217v3.751c0 .87.661 1.576 1.477 1.576.816 0 1.477-.706 1.477-1.576v-3.751h2.065v3.751c0 .87.661 1.576 1.477 1.576.816 0 1.477-.706 1.477-1.576v-3.751h2.248c.277 0 .501-.24.501-.535V9.007c0-.296-.224-.535-.501-.535zm-15.319 0c-.85 0-1.54.69-1.54 1.542v6.264a1.541 1.541 0 103.08 0v-6.264c0-.852-.69-1.542-1.54-1.542zm17.92 0c-.85 0-1.54.69-1.54 1.542v6.264a1.541 1.541 0 103.08 0v-6.264c0-.852-.69-1.542-1.54-1.542z"/><path d="M4.43 7.888h12.42c.324 0 .565-.315.499-.649-.41-2.061-1.658-3.798-3.349-4.802L15.062.42a.29.29 0 00-.105-.384.261.261 0 00-.365.11l-1.07 2.032a6.543 6.543 0 00-2.882-.667c-1.03 0-2.006.239-2.882.667L6.688.146a.262.262 0 00-.365-.11.29.29 0 00-.105.384L7.28 2.437C5.59 3.44 4.342 5.177 3.931 7.239c-.067.334.175.649.5.649zm9.916-3.006c0 .335-.259.608-.578.608-.319 0-.577-.272-.577-.608 0-.336.258-.608.577-.608.32 0 .578.272.578.608zm-6.834-.608c.318 0 .577.272.577.608 0 .335-.258.608-.577.608-.32 0-.578-.272-.578-.608 0-.336.259-.608.578-.608z" fill-rule="nonzero"/></g></svg>