<?xml version="1.0" encoding="UTF-8"?>
<svg width="75px" height="90px" viewBox="0 0 75 90" version="1.1" xmlns="http://www.w3.org/2000/svg" xmlns:xlink="http://www.w3.org/1999/xlink">
    <!-- Generator: sketchtool 52.2 (67145) - http://www.bohemiancoding.com/sketch -->
    <title>CD7B41B9-8345-423B-9D9B-39EF088707B6</title>
    <desc>Created with sketchtool.</desc>
    <g id="Page-1" stroke="none" stroke-width="1" fill="none" fill-rule="evenodd">
        <g id="LP_mob_dev" transform="translate(-1010.000000, -1775.000000)" fill="#FFFFFF">
            <g id="3" transform="translate(0.000000, 1540.000000)">
                <g id="android_big" transform="translate(1010.000000, 234.641833)">
                    <path d="M60.2106667,30 L15.7891214,30 C14.8009821,30 14,30.8193191 14,31.83008 L14,69.9339457 C14,70.9447066 14.8009821,71.7640257 15.7891214,71.7640257 L23.7084367,71.7640257 L23.7084367,84.6051557 C23.7084367,87.5845372 26.0696276,90 28.9825401,90 C31.8952407,90 34.2566435,87.584754 34.2566435,84.6051557 L34.2566435,71.7640257 L41.6333513,71.7640257 L41.6333513,84.6051557 C41.6333513,87.5845372 43.9945421,90 46.9074547,90 C49.8201553,90 52.1815581,87.584754 52.1815581,84.6051557 L52.1815581,71.7640257 L60.2108786,71.7640257 C61.1990179,71.7640257 62,70.9447066 62,69.9339457 L62,31.83008 C61.999788,30.8193191 61.198806,30 60.2106667,30 Z" id="Path"></path>
                    <path d="M5.5,30 C2.46254471,30 0,32.3634399 0,35.279127 L0,56.720873 C0,59.636348 2.46232367,62 5.5,62 C8.53745529,62 11,59.6365601 11,56.720873 L11,35.279127 C10.999779,32.363652 8.53745529,30 5.5,30 Z" id="Path"></path>
                    <path d="M69.5,30 C66.4625447,30 64,32.3634399 64,35.279127 L64,56.720873 C64,59.636348 66.4623237,62 69.5,62 C72.5374553,62 75,59.6365601 75,56.720873 L75,35.279127 C75,32.363652 72.5376763,30 69.5,30 Z" id="Path"></path>
                    <path d="M15.8221221,28 L60.1779426,28 C61.3350772,28 62.1980762,26.9243025 61.9604388,25.7813602 C60.4932111,18.7243666 56.0410677,12.7772369 49.999859,9.34166403 L53.7917067,2.43722229 C54.0483206,1.96977372 53.8809825,1.38067536 53.4177836,1.12170711 C52.9535065,0.862085994 52.3706264,1.03161227 52.1140125,1.49906084 L48.2934844,8.45551385 C45.1643043,6.99005822 41.6769429,6.17158798 38.0000323,6.17158798 C34.3229061,6.17158798 30.8355447,6.99005822 27.7063646,8.45551385 L23.8858365,1.49884322 C23.629007,1.03117703 23.0452643,0.862521235 22.582281,1.12148948 C22.1190822,1.38045773 21.951744,1.9695561 22.2083579,2.43700467 L26.0002057,9.34144641 C19.9589969,12.7772369 15.5068536,18.724149 14.0396258,25.7813602 C13.8017728,26.9243025 14.6647718,28 15.8221221,28 Z M51.2352716,17.7102557 C51.2352716,18.8597265 50.3118929,19.7917946 49.1726565,19.7917946 C48.0336358,19.7917946 47.1100414,18.8599441 47.1100414,17.7102557 C47.1100414,16.5607848 48.0334202,15.6287167 49.1726565,15.6287167 C50.3118929,15.6287167 51.2352716,16.5607848 51.2352716,17.7102557 Z M26.8269768,15.6287167 C27.9659975,15.6287167 28.8895919,16.5605672 28.8895919,17.7102557 C28.8895919,18.8597265 27.9662132,19.7917946 26.8269768,19.7917946 C25.6879562,19.7917946 24.7643618,18.8599441 24.7643618,17.7102557 C24.7643618,16.5607848 25.6877405,15.6287167 26.8269768,15.6287167 Z" id="Shape" fill-rule="nonzero"></path>
                </g>
            </g>
        </g>
    </g>
</svg>