<?xml version="1.0" encoding="UTF-8"?>
<svg width="73px" height="90px" viewBox="0 0 73 90" version="1.1" xmlns="http://www.w3.org/2000/svg" xmlns:xlink="http://www.w3.org/1999/xlink">
    <!-- Generator: sketchtool 52.2 (67145) - http://www.bohemiancoding.com/sketch -->
    <title>CD089616-374C-41FB-82CB-F348FBA21708</title>
    <desc>Created with sketchtool.</desc>
    <g id="Page-1" stroke="none" stroke-width="1" fill="none" fill-rule="evenodd">
        <g id="LP_mob_dev" transform="translate(-448.000000, -1775.000000)" fill="#FFFFFF" fill-rule="nonzero">
            <g id="3" transform="translate(0.000000, 1540.000000)">
                <g id="apple_big" transform="translate(448.000000, 234.641833)">
                    <path d="M60.9697733,48.2892006 C60.8566589,37.018022 70.2290468,31.612494 70.6477103,31.3439298 C65.381586,23.6937614 57.1781639,22.6457526 54.2548739,22.5245945 C47.2734728,21.822851 40.6324654,26.605032 37.0893225,26.605032 C33.5551096,26.605032 28.0876207,22.6283698 22.297598,22.7328404 C14.6881141,22.8451333 7.67169302,27.1252991 3.75348645,33.890857 C-4.15261637,47.5102775 1.72880832,67.6864885 9.43459707,78.7320384 C13.1999416,84.1387832 17.6898487,90.2112891 23.5849312,89.9943518 C29.2618394,89.7694184 31.4085621,86.3476151 38.271946,86.3476151 C45.1351549,86.3476151 47.0645788,89.9943518 53.0720753,89.8824066 C59.1809545,89.7697661 63.0511838,84.3722342 66.7906135,78.9489757 C71.1145262,72.6765677 72.8949402,66.603888 73,66.2922145 C72.8642977,66.2306794 61.0877905,61.752002 60.9697733,48.2892006 Z M49.6814442,15.2123476 C52.8103012,11.4439313 54.922179,6.21570787 54.3461009,1 C49.839209,1.1821717 44.3762727,3.98028033 41.142706,7.74017906 C38.2413036,11.0755899 35.7014821,16.3990711 36.3820947,21.5104822 C41.4134102,21.9002045 46.5492603,18.9722464 49.6814442,15.2123476 Z"></path>
                </g>
            </g>
        </g>
    </g>
</svg>