<svg width="21" height="26" xmlns="http://www.w3.org/2000/svg"><path d="M17.54 13.815c-.033-3.293 2.663-4.872 2.783-4.95-1.515-2.235-3.874-2.542-4.715-2.577-2.009-.205-3.92 1.192-4.938 1.192-1.017 0-2.59-1.162-4.256-1.131-2.189.033-4.207 1.283-5.334 3.26-2.275 3.978-.583 9.872 1.634 13.1 1.083 1.579 2.375 3.353 4.07 3.29 1.634-.066 2.251-1.066 4.226-1.066 1.974 0 2.53 1.065 4.257 1.033 1.758-.033 2.871-1.61 3.947-3.194 1.244-1.833 1.756-3.607 1.786-3.698-.039-.018-3.427-1.326-3.46-5.26zm-3.248-9.663C15.192 3.05 15.8 1.524 15.634 0c-1.297.053-2.868.87-3.798 1.969-.835.974-1.566 2.53-1.37 4.023 1.447.114 2.925-.742 3.826-1.84z" fill="#FFF"/></svg>