<svg width="155" height="50" xmlns="http://www.w3.org/2000/svg"><g fill="none" fill-rule="evenodd"><path d="M61.943 13c.852 0 1.634.086 2.344.258.711.172 1.26.34 1.645.501l-.883 3.616a5.948 5.948 0 00-1.325-.41 7.092 7.092 0 00-1.324-.137c-.549 0-1.01.076-1.386.228-.376.152-.67.36-.883.622a2.402 2.402 0 00-.457.942 4.89 4.89 0 00-.137 1.185v.79h5.603v3.767h-5.603v12.213H55v-16.83c0-2.067.584-3.707 1.75-4.922C57.919 13.608 59.65 13 61.944 13zm15.56 11.605a33.906 33.906 0 00-1.431-.319 8.864 8.864 0 00-1.766-.167c-.284 0-.625.025-1.02.076-.396.05-.696.106-.899.167v12.213H67.85v-15.13a27.304 27.304 0 012.878-.804c1.106-.254 2.34-.38 3.7-.38.243 0 .537.015.883.045a18.011 18.011 0 012.07.304c.345.071.64.157.883.258l-.761 3.737zm7.735 11.97H80.7v-15.98h4.538v15.98zm.426-20.598c0 .83-.27 1.484-.807 1.96a2.779 2.779 0 01-1.903.714c-.731 0-1.365-.238-1.903-.714s-.807-1.13-.807-1.96c0-.83.269-1.483.807-1.96a2.779 2.779 0 011.903-.713c.73 0 1.365.238 1.903.714s.807 1.129.807 1.96zm3.075 12.73c0-1.418.219-2.659.655-3.722.436-1.063 1.01-1.95 1.72-2.658a7.159 7.159 0 012.452-1.61 7.69 7.69 0 012.847-.547c2.274 0 4.07.693 5.39 2.08 1.32 1.388 1.979 3.428 1.979 6.122 0 .263-.01.552-.03.866-.02.314-.041.592-.061.835H93.398c.102.932.538 1.671 1.31 2.218.771.547 1.806.82 3.106.82a13.2 13.2 0 002.45-.227c.803-.152 1.457-.34 1.965-.562l.609 3.675a6.275 6.275 0 01-.974.365c-.406.122-.858.228-1.355.319a21.83 21.83 0 01-1.6.228c-.568.06-1.136.091-1.704.091-1.442 0-2.695-.213-3.761-.638-1.066-.425-1.949-1.008-2.65-1.747a6.93 6.93 0 01-1.552-2.628c-.335-1.012-.503-2.106-.503-3.28zm10.658-1.732a4.663 4.663 0 00-.198-1.124 2.804 2.804 0 00-.518-.973 2.755 2.755 0 00-.883-.698c-.355-.183-.796-.274-1.324-.274-.508 0-.944.086-1.31.259-.365.172-.67.4-.913.683a3.056 3.056 0 00-.563.987 6.467 6.467 0 00-.29 1.14h6zm7.887-5.833c.771-.223 1.766-.43 2.984-.623a24.578 24.578 0 013.837-.289c1.36 0 2.492.178 3.395.532.903.354 1.619.856 2.147 1.504.528.648.903 1.418 1.126 2.309.224.89.335 1.883.335 2.977v9.023h-4.537v-8.476c0-1.459-.193-2.491-.578-3.099-.386-.608-1.107-.911-2.162-.911-.325 0-.67.015-1.036.045-.365.03-.69.066-.974.107v12.334h-4.537V21.142zm21.802 7.321c0 1.398.315 2.522.944 3.372.63.851 1.564 1.276 2.802 1.276a12.9 12.9 0 001.127-.045c.345-.03.629-.066.852-.107v-8.232c-.284-.183-.654-.335-1.111-.456a5.367 5.367 0 00-1.386-.182c-2.152 0-3.228 1.458-3.228 4.374zm10.262 7.595a17.62 17.62 0 01-1.4.35c-.528.111-1.081.207-1.66.288-.579.081-1.167.147-1.766.198-.599.05-1.172.076-1.72.076-1.32 0-2.497-.193-3.533-.578-1.035-.384-1.908-.936-2.619-1.655-.71-.72-1.253-1.59-1.629-2.613-.375-1.023-.563-2.172-.563-3.448 0-1.296.162-2.466.487-3.509.325-1.043.792-1.929 1.4-2.658a5.994 5.994 0 012.239-1.671c.883-.385 1.893-.577 3.03-.577.63 0 1.193.06 1.69.182.497.122 1 .294 1.507.516v-7.23l4.537-.729v23.058zm8.862-2.734c.832 0 1.42-.081 1.766-.243.345-.162.517-.476.517-.942 0-.364-.223-.683-.67-.957-.446-.273-1.126-.582-2.04-.926a20.934 20.934 0 01-1.933-.82 5.684 5.684 0 01-1.477-1.018 4.116 4.116 0 01-.944-1.413c-.224-.547-.335-1.205-.335-1.975 0-1.498.558-2.683 1.675-3.554 1.116-.87 2.649-1.306 4.598-1.306.974 0 1.908.086 2.801.258.893.172 1.604.36 2.132.562l-.792 3.524a16.69 16.69 0 00-1.72-.486 9.371 9.371 0 00-2.086-.213c-1.421 0-2.132.395-2.132 1.185 0 .182.03.344.091.486.061.142.183.279.366.41.183.132.431.274.746.426.314.151.715.319 1.203.5.994.365 1.817.725 2.466 1.08.65.354 1.162.739 1.538 1.154.375.415.64.876.792 1.382.152.506.228 1.094.228 1.762 0 1.58-.594 2.775-1.781 3.585-1.188.81-2.868 1.215-5.04 1.215-1.421 0-2.603-.122-3.547-.365s-1.6-.445-1.965-.607l.762-3.676a14.91 14.91 0 002.375.714c.812.172 1.614.258 2.406.258z" fill="#FFF"/><circle fill="#4A998C" cx="25" cy="25" r="25"/><path d="M13.652 24.857c0 2.518 1.03 3.778 3.09 3.778.47 0 .908-.06 1.317-.182a5 5 0 001.04-.423v-7.192a10.302 10.302 0 00-1.867-.151c-1.204 0-2.101.393-2.693 1.178-.592.786-.887 1.783-.887 2.992zm10.007 6.467c0 2.6-.668 4.528-2.005 5.787C20.318 38.371 18.252 39 15.457 39c-.98 0-1.958-.086-2.938-.257a18.497 18.497 0 01-2.723-.68l.795-3.777c.714.282 1.464.503 2.25.665.785.16 1.678.241 2.677.241 1.306 0 2.23-.282 2.77-.846.54-.564.811-1.29.811-2.176v-.574c-.49.222-.995.388-1.515.499-.52.11-1.086.166-1.698.166-2.224 0-3.928-.65-5.111-1.95C9.592 29.013 9 27.195 9 24.858c0-1.168.184-2.231.55-3.188a6.775 6.775 0 011.608-2.463c.703-.685 1.565-1.214 2.585-1.586 1.02-.373 2.173-.56 3.459-.56.55 0 1.117.026 1.698.076.582.05 1.158.116 1.73.196.57.081 1.116.177 1.636.288.52.11.985.226 1.393.347v13.357zM43 25.341c0 1.249-.184 2.392-.55 3.43-.368 1.037-.899 1.924-1.592 2.659a7.164 7.164 0 01-2.494 1.707c-.97.403-2.056.605-3.26.605-1.183 0-2.26-.202-3.228-.605a7.164 7.164 0 01-2.494-1.707c-.694-.735-1.235-1.622-1.622-2.66-.388-1.037-.582-2.18-.582-3.43 0-1.248.2-2.387.597-3.414.398-1.028.949-1.904 1.653-2.63a7.426 7.426 0 012.509-1.692c.97-.403 2.025-.604 3.167-.604 1.163 0 2.23.201 3.198.604.97.403 1.8.967 2.495 1.693.693.725 1.234 1.601 1.622 2.629.387 1.027.581 2.166.581 3.415zm-4.652 0c0-1.39-.28-2.483-.841-3.28-.561-.795-1.362-1.193-2.403-1.193-1.04 0-1.846.398-2.417 1.194-.571.796-.857 1.889-.857 3.279s.286 2.493.857 3.309c.571.816 1.377 1.224 2.417 1.224 1.04 0 1.842-.408 2.403-1.224.56-.816.841-1.92.841-3.31z" fill="#FFF"/></g></svg>