<svg width="250" height="81" xmlns="http://www.w3.org/2000/svg"><g transform="translate(-440 -299)" fill="none" fill-rule="evenodd"><path fill="#2D2D2D" fill-rule="nonzero" d="M0 42h1953v577H0z"/><path d="M540.178 320c1.373 0 2.63.14 3.775.42 1.144.28 2.026.55 2.647.814l-1.422 5.875a9.511 9.511 0 00-2.132-.667 11.316 11.316 0 00-2.133-.222c-.882 0-1.626.124-2.23.37-.605.247-1.079.585-1.422 1.013a3.918 3.918 0 00-.736 1.53 7.977 7.977 0 00-.22 1.925v1.284h9.02v6.121h-9.02v19.846H529v-27.35c0-3.356.94-6.022 2.819-7.997 1.88-1.975 4.666-2.962 8.359-2.962zm25.052 18.858a54.157 54.157 0 00-2.304-.518 14.143 14.143 0 00-2.844-.272c-.457 0-1.005.041-1.642.124-.637.082-1.12.173-1.446.271v19.846h-7.305v-24.585c1.307-.46 2.851-.897 4.633-1.308 1.781-.412 3.766-.617 5.956-.617.393 0 .866.024 1.422.074a28.74 28.74 0 013.334.493c.555.116 1.03.256 1.422.42l-1.226 6.072zm12.452 19.45h-7.304v-25.966h7.304v25.967zm.687-33.47c0 1.35-.433 2.41-1.3 3.184-.866.774-1.887 1.16-3.064 1.16-1.176 0-2.197-.386-3.064-1.16-.866-.773-1.299-1.835-1.299-3.184 0-1.35.433-2.41 1.3-3.184.866-.774 1.887-1.16 3.063-1.16 1.177 0 2.198.386 3.065 1.16.866.773 1.299 1.835 1.299 3.184zm4.951 20.685c0-2.304.352-4.32 1.054-6.048.703-1.728 1.626-3.167 2.77-4.32a11.517 11.517 0 013.947-2.616 12.282 12.282 0 014.584-.888c3.66 0 6.553 1.127 8.677 3.381 2.125 2.255 3.187 5.57 3.187 9.948 0 .428-.016.897-.049 1.407s-.065.962-.098 1.357h-16.57c.163 1.514.865 2.715 2.107 3.604 1.242.889 2.91 1.333 5.001 1.333 1.34 0 2.656-.123 3.947-.37 1.29-.247 2.345-.552 3.162-.914l.98 5.974c-.392.197-.915.395-1.569.592-.653.198-1.38.37-2.181.519-.801.148-1.659.271-2.574.37-.915.099-1.83.148-2.746.148-2.32 0-4.338-.346-6.054-1.037-1.716-.69-3.138-1.637-4.265-2.838-1.128-1.202-1.961-2.625-2.5-4.27-.54-1.646-.81-3.423-.81-5.332zm17.16-2.814a7.64 7.64 0 00-.32-1.827 4.571 4.571 0 00-.833-1.58 4.45 4.45 0 00-1.422-1.135c-.572-.296-1.282-.444-2.132-.444-.817 0-1.52.14-2.108.42a4.36 4.36 0 00-1.471 1.11c-.392.46-.695.996-.907 1.605a10.588 10.588 0 00-.466 1.85h9.658zm12.697-9.479c1.242-.362 2.843-.699 4.804-1.012a39.213 39.213 0 016.178-.469c2.19 0 4.012.288 5.466.864 1.454.576 2.607 1.39 3.456 2.444.85 1.053 1.455 2.304 1.814 3.752.36 1.448.54 3.06.54 4.838v14.662h-7.305v-13.774c0-2.37-.31-4.048-.932-5.035-.62-.987-1.781-1.481-3.48-1.481-.524 0-1.08.025-1.667.074a26.98 26.98 0 00-1.57.173v20.043h-7.304V333.23zm35.102 11.898c0 2.27.507 4.097 1.52 5.48 1.013 1.382 2.517 2.073 4.51 2.073.654 0 1.259-.025 1.814-.074a15.47 15.47 0 001.373-.173v-13.378c-.458-.297-1.054-.543-1.79-.74a8.566 8.566 0 00-2.23-.297c-3.465 0-5.197 2.37-5.197 7.109zm16.522 12.342c-.654.197-1.406.386-2.255.567-.85.181-1.74.338-2.672.47a51.78 51.78 0 01-2.844.32 32.73 32.73 0 01-2.77.124c-2.124 0-4.02-.313-5.687-.938-1.666-.626-3.072-1.522-4.216-2.69-1.144-1.17-2.018-2.584-2.623-4.246-.604-1.662-.907-3.53-.907-5.604 0-2.106.262-4.007.785-5.701.523-1.695 1.274-3.135 2.255-4.32a9.659 9.659 0 013.603-2.715c1.422-.626 3.048-.938 4.878-.938 1.014 0 1.92.098 2.721.296.801.197 1.61.477 2.427.84v-11.75l7.305-1.185v37.47zm14.266-4.443c1.34 0 2.288-.132 2.844-.395.555-.264.833-.774.833-1.53 0-.593-.36-1.111-1.078-1.556-.72-.444-1.814-.946-3.285-1.505a33.537 33.537 0 01-3.113-1.333c-.932-.461-1.724-1.012-2.378-1.654a6.692 6.692 0 01-1.52-2.296c-.36-.888-.539-1.958-.539-3.209 0-2.435.899-4.36 2.696-5.776 1.798-1.415 4.266-2.122 7.403-2.122 1.57 0 3.073.14 4.51.42 1.439.279 2.583.583 3.432.913l-1.274 5.726a26.64 26.64 0 00-2.77-.79c-.997-.23-2.116-.345-3.358-.345-2.288 0-3.432.641-3.432 1.925a2 2 0 00.147.79c.098.23.294.452.588.666.294.214.695.445 1.201.691.507.247 1.152.519 1.937.815 1.601.592 2.925 1.177 3.97 1.753 1.047.576 1.872 1.2 2.477 1.876a5.835 5.835 0 011.274 2.246c.245.822.368 1.777.368 2.863 0 2.567-.956 4.509-2.868 5.825-1.912 1.317-4.617 1.975-8.114 1.975-2.288 0-4.191-.197-5.711-.592-1.52-.395-2.574-.724-3.162-.988l1.225-5.973c1.242.494 2.517.88 3.824 1.16 1.308.28 2.599.42 3.873.42z" fill="#FFF"/><circle fill="#4A998C" cx="480.5" cy="339.5" r="40.5"/><path d="M461.525 338.857c0 4.121 1.666 6.181 5 6.181a7.37 7.37 0 002.128-.296c.66-.198 1.222-.429 1.684-.693V332.28a16.485 16.485 0 00-3.02-.247c-1.947 0-3.4.643-4.357 1.929-.957 1.285-1.435 2.917-1.435 4.895zm16.188 10.583c0 4.252-1.081 7.409-3.243 9.47-2.161 2.06-5.503 3.09-10.024 3.09-1.585 0-3.169-.14-4.753-.42a29.64 29.64 0 01-4.406-1.113l1.287-6.181c1.155.461 2.368.824 3.639 1.088 1.27.263 2.714.395 4.332.395 2.112 0 3.605-.461 4.48-1.384.874-.923 1.312-2.11 1.312-3.56v-.94c-.792.362-1.61.634-2.45.816-.842.18-1.758.272-2.748.272-3.598 0-6.354-1.064-8.268-3.19-1.914-2.126-2.871-5.102-2.871-8.926 0-1.912.297-3.65.891-5.217.594-1.566 1.46-2.91 2.6-4.03 1.138-1.121 2.532-1.986 4.182-2.596 1.65-.61 3.515-.915 5.594-.915.891 0 1.807.041 2.748.124.94.082 1.873.19 2.797.321.924.132 1.807.288 2.648.47.842.181 1.593.37 2.253.568v21.858zM509 339.648c0 2.044-.297 3.915-.891 5.613-.594 1.698-1.452 3.148-2.574 4.352a11.585 11.585 0 01-4.035 2.794c-1.568.659-3.325.989-5.272.989-1.914 0-3.655-.33-5.223-.99a11.585 11.585 0 01-4.035-2.793c-1.122-1.204-1.996-2.654-2.623-4.352-.628-1.698-.941-3.569-.941-5.613 0-2.044.322-3.906.965-5.588.644-1.68 1.535-3.115 2.674-4.302a12.006 12.006 0 014.059-2.769c1.568-.66 3.276-.989 5.124-.989 1.88 0 3.605.33 5.173.989 1.568.66 2.913 1.582 4.035 2.77 1.122 1.186 1.996 2.62 2.623 4.301.627 1.682.941 3.544.941 5.588zm-7.525 0c0-2.274-.454-4.063-1.361-5.365-.908-1.302-2.203-1.953-3.886-1.953-1.683 0-2.987.65-3.911 1.953-.924 1.302-1.386 3.09-1.386 5.365 0 2.275.462 4.08 1.386 5.415.924 1.335 2.228 2.003 3.91 2.003 1.684 0 2.98-.668 3.887-2.003s1.361-3.14 1.361-5.415z" fill="#FFF"/></g></svg>